<?xml version="1.0" encoding="utf-8"?>
<!-- Generator: Adobe Illustrator 13.0.0, SVG Export Plug-In . SVG Version: 6.00 Build 14948)  -->
<!DOCTYPE svg PUBLIC "-//W3C//DTD SVG 1.1//EN" "http://www.w3.org/Graphics/SVG/1.1/DTD/svg11.dtd">
<svg version="1.1" id="Layer_1" xmlns="http://www.w3.org/2000/svg" xmlns:xlink="http://www.w3.org/1999/xlink" x="0px" y="0px"
	 width="494.4px" height="179.2px" viewBox="0 0 494.4 179.2" enable-background="new 0 0 494.4 179.2" xml:space="preserve">
<g>
	<path d="M21.2,8.4c0.531,0,0.8,1.469,0.8,4.4c0.531,3.469,1.462,6.137,2.8,8c1.063,1.337,2.263,2,3.6,2c1.6,0,4.263,0.938,8,2.8
		c1.6,1.337,3.332,2.669,5.2,4h0.8c1.332-0.262,2-1.331,2-3.2v-1.6V22h0.4c1.063,1.6,1.863,2.8,2.4,3.6c1.331,1.337,2.531,2,3.6,2
		c0.263,0,0.531,0,0.8,0v-1.2c0-3.731,0.931-6.263,2.8-7.6c3.2-4.531,9.462-6.8,18.8-6.8c12,0,25.063,3.469,39.2,10.4
		c3.2,1.6,6.131,3.6,8.8,6c1.063,1.068,1.6,1.869,1.6,2.4c0,1.6-1.2,4.538-3.6,8.8c-0.8,0.8-1.6,1.2-2.4,1.2l-6.8-0.4h-0.8l-0.4,1.6
		l0.4,4c0,12.8-2.269,22.531-6.8,29.2C97.331,84,88.8,90.932,76.8,96c-6.668,2.399-13.737,3.601-21.2,3.601c-12,0-24-4-36-12
		c-2.138-1.337-5.2-4-9.2-8C3.462,71.332,0,62.8,0,54c0-7.2,2.4-14.537,7.2-22c2.4-2.662,4.531-4.531,6.4-5.6
		c-1.069-2.932-1.6-5.332-1.6-7.2v-0.8c0-3.2,1.462-5.463,4.4-6.8C18.263,10,19.862,8.938,21.2,8.4z M6.4,44.8v0.8
		c0,5.332,2.8,11.863,8.4,19.6c4.263,5.331,8.531,9.462,12.8,12.4c11.2,8,21.862,12,32,12h1.6c10.662,0,20.931-3.069,30.8-9.2
		c6.663-4.269,11.331-10.138,14-17.6c1.331-4,2-11.469,2-22.4c-5.869,0.262-16.269,1.2-31.2,2.8l-7.2,0.4h-2.8
		c-3.2,0-7.2-0.269-12-0.8c-1.337,0-2.137,0.262-2.4,0.8l0.8,1.6c0.262,2.131,0.4,3.6,0.4,4.4c0,3.731-1.738,6.263-5.2,7.6
		c-1.337,0.263-2.668,0.4-4,0.4h-0.8c-4.8,0-10.8-3.337-18-10c-2.4-2.938-5.069-7.2-8-12.8L17.2,34h-0.4
		c-4.269,0-7.469,2.538-9.6,7.6C6.663,42.663,6.4,43.731,6.4,44.8z M130.4,0.4c0.8,0,2.531,2.668,5.2,8C141.2,18.8,144,28,144,36
		c0,4.8-1.6,9.063-4.8,12.8c-0.538,0.8-0.938,1.462-1.2,2c1.862,3.731,2.8,8,2.8,12.8c0,16-8,33.462-24,52.4
		c-6.938,7.199-12.137,12.399-15.6,15.601c-6.138,5.063-12.4,9.729-18.8,14c-12.8,8.53-27.069,16.262-42.8,23.198
		c-9.337,3.731-18.138,7.063-26.4,10l-1.2,0.4l-0.4-0.4V178.4c0.531-0.538,4.4-2.138,11.6-4.8c19.731-7.738,37.331-16.538,52.8-26.4
		c6.4-4.269,13.2-9.338,20.4-15.199c8.8-7.47,15.731-14.537,20.8-21.201c8.262-10.398,13.6-20.269,16-29.599
		c0.531-3.2,0.8-5.869,0.8-8v-0.4c0-6.938-2.669-13.2-8-18.8c-4-5.869-6.269-9.6-6.8-11.2c0-2.138,2.262-5.863,6.8-11.2h0.4
		c0.263,0.269,1.2,1.869,2.8,4.8c1.862,3.731,3.462,5.6,4.8,5.6c1.331-1.068,2-2.668,2-4.8c0-4-2.538-9.462-7.6-16.4
		c-3.2-4.8-4.8-7.863-4.8-9.2v-0.4c0-1.6,1.6-4.531,4.8-8.8C128.931,1.069,129.6,0.4,130.4,0.4z M31.2,40.8c0,2.931,1.331,4.4,4,4.4
		H36c1.331,0,2-0.4,2-1.2c-3.2-2.938-5.2-4.4-6-4.4C31.462,39.6,31.2,40,31.2,40.8z M55.6,22.4c0,2.4,0.931,4.668,2.8,6.8
		c1.6,1.069,4.4,1.6,8.4,1.6h4.8c3.462,0,12.8-0.8,28-2.4c4.8,0,8.663,0,11.6,0c0.262-0.531,0.4-1.2,0.4-2c0-3.2-6.138-6-18.4-8.4
		c-4.538-1.063-9.6-1.6-15.2-1.6c-9.337,0-16.669,1.469-22,4.4L55.6,22V22.4z M66.4,47.2h0.4c0.531,0,4,2.4,10.4,7.2
		c1.331,1.331,2,2.531,2,3.6v0.8c0,1.862-1.2,4.262-3.6,7.2c2.131,1.332,4,2.932,5.6,4.8c0.531,0.531,0.8,1.2,0.8,2v0.4
		c0,1.862-1.6,4.531-4.8,8c-0.269,0.531-0.8,0.8-1.6,0.8c-0.269,0-1.6-1.2-4-3.6c-4.8-2.669-7.869-4.538-9.2-5.6
		c-0.269-0.538-0.4-1.069-0.4-1.6c0-0.538,0.931-2.138,2.8-4.8c0.531-0.8,1.332-2,2.4-3.6c-5.069-2.669-7.6-4.4-7.6-5.2l-0.4-0.8
		c0.262-0.538,1.2-2.138,2.8-4.8C63.862,48.8,65.331,47.2,66.4,47.2z M158,4c0.263,0,0.4,1.069,0.4,3.2c0.531,2.4,1.731,4.4,3.6,6
		l5.2,4c0.262,0.538,0.4,0.938,0.4,1.2c0,0.269-0.138,0.537-0.4,0.8c-2.938-0.531-5.338-1.2-7.2-2l-1.2-0.8
		c0.8,17.6,1.2,28.262,1.2,32c0,5.6-1.069,10.131-3.2,13.6c6.4,5.332,13.463,8,21.2,8h0.8c7.463,0,14.131-2.668,20-8
		c2.932-3.469,4.4-7.337,4.4-11.6c0-5.6-2.538-10.138-7.6-13.6c-2.4-2.131-6.269-3.731-11.6-4.8c-2.669,0-4-0.262-4-0.8v-0.4
		c1.063-3.462,2.931-6.4,5.6-8.8c1.063-1.063,2-1.731,2.8-2c4.8,0,9.6,1.469,14.4,4.4l4.8,4h0.8c2.4-2.932,3.863-4.531,4.4-4.8
		l0.4-0.4c0.531,0,2.4,1.469,5.6,4.4c2.131,1.337,3.6,2,4.4,2c0.262,0,0.662-0.663,1.2-2c0.8-1.862,2.531-3.862,5.2-6
		c4.8-3.2,11.331-4.8,19.6-4.8c13.6,0,26.531,4,38.8,12c1.862,1.337,2.8,2.4,2.8,3.2v0.4c0,1.068-0.8,2.668-2.398,4.8
		c-1.602,2.4-3.069,3.6-4.4,3.6h-1.2l-11.6-0.4c-3.2,0-12.538,0.8-28,2.4c-2.138,0.8-3.2,1.6-3.2,2.4
		c-1.337,2.663-3.469,5.331-6.4,8c-0.8,0.263-2,0.4-3.6,0.4c-4.269,0-8.269-2-12-6l-3.2-2.4H214c-0.269,1.862-1.2,5.2-2.8,10
		c-4,8-10.4,13.6-19.2,16.8c-5.069,1.6-9.469,2.4-13.2,2.4H178c-8.538,0-16.269-3.2-23.2-9.6c-2.137,2.131-5.337,3.2-9.6,3.2h-2
		v-0.4c2.131-2.137,3.462-4,4-5.6c0.8-1.068,1.331-2.8,1.6-5.2c-2.938-5.069-4.4-10.938-4.4-17.6c0-5.6,1.063-11.2,3.2-16.8
		L147.2,12c0-1.331,0.931-2.4,2.8-3.2C154.263,5.869,156.931,4.269,158,4z M146,36.8c0,4.8,0.931,9.6,2.8,14.4v-0.4l-1.2-25.2
		C146.531,29.869,146,33.6,146,36.8z M173.6,36c0.8,0,4.531,2.4,11.2,7.2c1.063,1.063,1.6,2.131,1.6,3.2v1.2
		c0,1.863-1.069,4-3.2,6.4c-1.069,1.863-1.869,2.8-2.4,2.8H180l-4-4c-4-2.4-6.8-4.538-8.4-6.4c-0.538,0-0.8-0.269-0.8-0.8v-0.4
		c0-0.538,0.932-2.138,2.8-4.8C171.2,37.463,172.531,36,173.6,36z M298,0c1.063,0,2.662,2.4,4.8,7.2c5.602,10.669,8.4,19.6,8.4,26.8
		v2.8c0,4-1.602,8-4.8,12L305.6,50c1.863,4,2.802,8,2.802,12v2.4c0,11.462-4.938,24.531-14.801,39.2
		c-3.201,4.8-8.4,10.931-15.601,18.4c-8,7.73-14.138,13.063-18.399,16c-9.068,6.932-18.138,12.932-27.201,18
		c-11.2,6.399-25.737,12.932-43.6,19.601c-5.337,1.862-8.4,2.8-9.2,2.8V178c0-0.537,3.862-2.139,11.6-4.801
		c20-8,37.331-16.8,52-26.4c7.73-4.536,16.398-10.938,26-19.198c7.462-7.47,12-12.399,13.6-14.802c4.531-5.067,7.862-9.736,10-14
		c6.132-10.398,9.2-19.067,9.2-26c0-6.938-2.537-13.2-7.601-18.8c-4.801-6.137-7.199-10.137-7.199-12c0-1.6,2-5.063,6-10.4l0.8-0.8
		c0.263,0.269,1.063,1.737,2.399,4.4c2.399,4.263,4.132,6.4,5.199,6.4h0.4c0.8-0.269,1.463-1.869,2-4.8c0-4-2.938-9.863-8.8-17.6
		c-2.938-4.263-4.4-7.063-4.4-8.4c0-1.6,1.601-4.4,4.8-8.4C296.662,0.8,297.463,0,298,0z M222.4,40v0.8c0,1.331,0.663,2,2,2h0.8h1.2
		v-0.4c-1.6-1.338-2.8-2.269-3.6-2.8C222.531,39.6,222.4,39.731,222.4,40z M227.6,27.6c0.531,3.2,2.4,4.8,5.6,4.8h2.4
		c1.6,0,8.8-0.932,21.6-2.8c5.6-0.8,11.861-1.2,18.8-1.2c1.063,0,1.862-0.263,2.399-0.8c0-0.8-0.801-1.462-2.399-2
		c-2.938-1.862-6-3.331-9.2-4.4c-5.337-1.063-10.669-1.6-16-1.6c-10.938,0-18.4,2.138-22.4,6.4
		C227.862,26.269,227.6,26.8,227.6,27.6z M324.8,3.2c0.263,0,0.4,1.337,0.4,4c0.8,2.138,1.73,3.6,2.8,4.4
		c1.331,1.869,3.331,3.6,6,5.2l0.8,0.8V18H334.4c-3.2,0-6.139-0.931-8.802-2.8l1.2,21.2c4.264-2.932,8.663-4.4,13.2-4.4h1.2
		c5.063,0,9.6,1.869,13.6,5.6c1.862,1.863,2.933,2.931,3.2,3.2l2-2.8h0.8c0.264,0,1.463,0.8,3.602,2.4
		c1.063,0.262,1.861,0.4,2.398,0.4h0.4c0.531,0,0.8-0.138,0.8-0.4c0-0.8-4.138-2.669-12.4-5.6c-1.067-0.263-1.6-0.8-1.6-1.6
		c0.263-0.8,2-4,5.2-9.6c0.531-0.531,1.063-0.8,1.6-0.8c4.531,1.069,9.862,3.6,16,7.6c4.264,3.737,6.4,7.862,6.4,12.4
		c0,4.262-2.139,7.063-6.4,8.4c-2.938,0.531-5.736,0.8-8.398,0.8c-3.738,0-6.938-0.8-9.602-2.4H358l-2,5.6c-1.068,2.4-2,3.6-2.8,3.6
		c-0.538,0-1.2-1.6-2-4.8c-3.469-7.737-8.938-11.6-16.4-11.6c-2.398,0-4.938,0.531-7.6,1.6v4c0,7.731-2.27,13.463-6.8,17.2
		c-2.4,1.331-5.2,2-8.4,2h-1.2h0.4l-0.4,0.8v3.6c0,8.8,4.132,18,12.4,27.6c4.531,4.801,8.263,7.862,11.2,9.2
		c3.198,2.399,6.931,4.131,11.198,5.2c1.332,0.8,2.264,1.462,2.802,2H348c-5.869-1.069-12.938-4.538-21.2-10.4
		C323.063,102,320.131,98.931,318,96c-6.4-8.27-9.6-16.668-9.6-25.201v-1.2c0-7.2,2.262-14.668,6.8-22.4
		c-0.8-19.462-1.2-31.6-1.2-36.4c0-0.8,1.6-2.131,4.8-4C322,4.938,324,3.738,324.8,3.2z M315.2,54c-1.338,2.4-2.4,4.932-3.2,7.6
		l-0.8,3.6c1.331-1.337,2.531-3.2,3.6-5.6c0.264-1.337,0.531-3.2,0.8-5.6H315.2z M348.8,4v0.8c0.263,0.8,0.8,2.4,1.602,4.8l0.8,2
		c0,3.2-2,5.738-6,7.6c-1.338,1.069-2,2.269-2,3.6c0,0.8,0.531,1.2,1.6,1.2c1.063,0,2.4-0.531,4-1.6l0.8-0.4l2,0.8
		c1.063,0,1.602-0.263,1.602-0.8c0-0.8-0.27-1.6-0.8-2.4h0.398c1.063,0,1.602,0.8,1.602,2.4v0.8c0,1.6-0.802,2.4-2.4,2.4l-2-0.4
		l-3.6,1.6H344.8c-2.138,0-3.2-0.932-3.2-2.8c0-2.131,1.863-4.131,5.602-6c1.6-1.063,2.398-2.663,2.398-4.8c0-2.131-0.668-4.4-2-6.8
		V5.2L348.8,4z M422.8,14.4l-6.8,5.2c-7.2,5.337-10.8,10.138-10.8,14.4c0,4,3.6,6,10.8,6c4,0,11.063-1.2,21.2-3.6
		c2.662-0.531,4.531-0.8,5.6-0.8c4,0,6.531,1.731,7.602,5.2c0.53,2.663,0.931,4,1.198,4h0.4l2-4.8l0.4-0.4V40h0.398
		c-0.537,1.6-0.8,3.731-0.8,6.4c0,2.131,0.131,3.2,0.4,3.2l5.198-9.2c0.264-0.269,0.663-0.4,1.2-0.4l5.2,2
		c1.862,0.263,3.6,0.4,5.2,0.4h0.8c-2.669-2.138-5.6-3.869-8.8-5.2c-3.469-1.331-5.2-2.4-5.2-3.2v-0.4c0-1.063,2-4,6-8.8
		c0.531-0.8,0.932-1.2,1.2-1.2l4.8,1.6c4,1.337,7.862,2,11.6,2c1.863,0,4.802-0.263,8.802-0.8c0,0.8-3.47,1.469-10.4,2h-2.8h-2.4
		c4.8,2.938,9.331,6.137,13.602,9.6c4,3.731,6,6.131,6,7.2c0,0.531-0.938,2.263-2.802,5.2c-1.867,3.731-3.736,5.6-5.6,5.6h-0.8
		c-7.2,0-15.737-0.668-25.602-2c-1.337,0-2.8,1.332-4.398,4c-2.4,3.463-3.737,5.2-4,5.2v-0.8v-2.8c0-2.4,0-5.2,0-8.4v-0.4
		c-0.538,0.8-2.4,3.731-5.602,8.8c-1.867,2.663-3.067,4-3.6,4v-1.2l0.8-6.8l0.4-2.8c0-2.938-0.938-4.669-2.8-5.2
		c-0.271,0-1.069-0.137-2.4-0.4h-1.6c-0.802,0-3.869,0.663-9.2,2l-1.2,0.4c-3.469,8.531-7.869,12.8-13.2,12.8H412.4
		c-4.538,0-8.538-1.869-12-5.6l-1.2-2c-3.2,13.063-9.2,24-18,32.8c-5.602,5.6-10.538,9.73-14.8,12.4
		c-6.938,4.799-10.938,7.199-12,7.199v-0.4c0.8-1.067,2.661-2.668,5.6-4.799c5.331-3.201,11.463-7.737,18.4-13.601
		c5.6-6.138,9.198-10.669,10.8-13.6c1.6-2.138,3.331-5.6,5.2-10.4c1.861-5.338,2.8-10.269,2.8-14.8l-0.8-7.6v-0.4
		c0-3.469,0.398-6.931,1.198-10.4h0.4l2.4,2.8l1.198-2.8C404.531,25.6,411.6,20,422.8,14.4z M393.6,3.6c0,0.269,0,1.337,0,3.2
		c0.531,2.4,1.731,4.4,3.602,6l6,4.8v0.8h-0.4c-3.2,0-6-0.932-8.398-2.8c0.262,8.538,0.662,19.2,1.198,32c0,9.063-2.668,15.2-8,18.4
		c-1.867,1.063-4.269,1.6-7.198,1.6H379.6c-0.536,0-0.8-0.137-0.8-0.4l2.4-2c2.131-3.469,3.2-7.737,3.2-12.8
		c-0.802-16.263-1.47-30-2-41.2c0-1.063,1.198-2.131,3.6-3.2C390.263,5.069,392.8,3.6,393.6,3.6z M406.8,46.4H406.4v1.2
		c0,1.6,0.931,2.4,2.8,2.4c1.063,0,1.6-0.269,1.6-0.8C408.662,47.332,407.331,46.4,406.8,46.4z M465.6,59.2
		c0.531,0,4.133,2.4,10.802,7.2c1.331,1.063,2,2.4,2,4c0,2.131-1.339,4.662-4,7.6c-0.538,1.063-1.069,1.6-1.602,1.6H472.4
		c-0.538,0-2-1.337-4.4-4c-4.8-2.938-7.869-4.8-9.2-5.6v-1.2c0-0.8,0.663-2.269,2-4.4c0.8-1.869,2.132-3.6,4-5.2h0.4H465.6z"/>
</g>
</svg>
