<?xml version="1.0"?>
<svg xmlns="http://www.w3.org/2000/svg" height="512px" viewBox="0 0 448 448" width="512px" class=""><g><path d="m416 160v-120c0-4.417969 3.582031-8 8-8h24v-32h-64.800781c-3.785157 18.644531-20.175781 32.039062-39.199219 32.039062s-35.414062-13.394531-39.199219-32.039062h-64.800781v32h24c4.417969 0 8 3.582031 8 8v120zm-48-120h32v16h-32zm0 0" data-original="#000000" class="active-path" data-old_color="#90a4ae" fill="#90a4ae"/><path d="m344 16c10.132812-.042969 19.148438-6.445312 22.527344-16h-45.054688c3.378906 9.554688 12.394532 15.957031 22.527344 16zm0 0" data-original="#000000" class="active-path" data-old_color="#90a4ae" fill="#90a4ae"/><path d="m104 304c10.132812-.042969 19.148438-6.445312 22.527344-16h-45.054688c3.378906 9.554688 12.394532 15.957031 22.527344 16zm0 0" data-original="#000000" class="active-path" data-old_color="#90a4ae" fill="#90a4ae"/><path d="m176 448v-120c0-4.417969 3.582031-8 8-8h24v-32h-64.800781c-3.785157 18.644531-20.175781 32.039062-39.199219 32.039062s-35.414062-13.394531-39.199219-32.039062h-64.800781v32h24c4.417969 0 8 3.582031 8 8v120zm-48-120h32v16h-32zm0 0" data-original="#000000" class="active-path" data-old_color="#90a4ae" fill="#90a4ae"/><path d="m224 192v32c0 4.417969 3.582031 8 8 8h32v16h-40v16h48c4.417969 0 8-3.582031 8-8v-32c0-4.417969-3.582031-8-8-8h-32v-16h40v-16h-48c-4.417969 0-8 3.582031-8 8zm0 0" data-original="#000000" class="active-path" data-old_color="#90a4ae" fill="#90a4ae"/><path d="m147.558594 246.65625 24 16c2.691406 1.792969 6.191406 1.792969 8.882812 0l24-16c2.222656-1.484375 3.558594-3.980469 3.558594-6.65625v-56h-16v51.71875l-16 10.679688-16-10.664063v-51.734375h-16v56c0 2.675781 1.335938 5.171875 3.558594 6.65625zm0 0" data-original="#000000" class="active-path" data-old_color="#90a4ae" fill="#90a4ae"/><path d="m0 240h16v16h-16zm0 0" data-original="#000000" class="active-path" data-old_color="#90a4ae" fill="#90a4ae"/><path d="m32 240h16v16h-16zm0 0" data-original="#000000" class="active-path" data-old_color="#90a4ae" fill="#90a4ae"/><path d="m64 240h16v16h-16zm0 0" data-original="#000000" class="active-path" data-old_color="#90a4ae" fill="#90a4ae"/><path d="m336 192h16v16h-16zm0 0" data-original="#000000" class="active-path" data-old_color="#90a4ae" fill="#90a4ae"/><path d="m368 192h16v16h-16zm0 0" data-original="#000000" class="active-path" data-old_color="#90a4ae" fill="#90a4ae"/><path d="m400 192h16v16h-16zm0 0" data-original="#000000" class="active-path" data-old_color="#90a4ae" fill="#90a4ae"/></g> </svg>
