<?xml version="1.0"?>
<svg xmlns="http://www.w3.org/2000/svg" xmlns:xlink="http://www.w3.org/1999/xlink" version="1.1" id="Layer_1" x="0px" y="0px" viewBox="0 0 512 512" style="enable-background:new 0 0 512 512;" xml:space="preserve" width="512px" height="512px"><g><g>
	<g>
		<path d="M0,21.113v469.773h512V21.113H0z M496.165,475.052H15.835V110.845h31.67v60.701H63.34v-60.701h385.32v60.701h15.835    v-60.701h31.67V475.052z M496.165,95.01H15.835V36.948h480.33V95.01z" data-original="#000000" class="active-path" data-old_color="#90a4ae" fill="#90a4ae"/>
	</g>
</g><g>
	<g>
		<rect x="39.588" y="58.062" width="31.67" height="15.835" data-original="#000000" class="active-path" data-old_color="#90a4ae" fill="#90a4ae"/>
	</g>
</g><g>
	<g>
		<rect x="92.371" y="58.062" width="31.67" height="15.835" data-original="#000000" class="active-path" data-old_color="#90a4ae" fill="#90a4ae"/>
	</g>
</g><g>
	<g>
		<rect x="440.742" y="58.062" width="31.67" height="15.835" data-original="#000000" class="active-path" data-old_color="#90a4ae" fill="#90a4ae"/>
	</g>
</g><g>
	<g>
		<path d="M438.103,422.268V237.526H321.979v-63.34H190.021v105.567H73.897v142.516H34.309v15.835h443.381v-15.835H438.103z     M190.021,422.268H89.732v-89.732h100.289V422.268z M190.021,316.701H89.732v-21.113h100.289V316.701z M306.144,422.268H205.856    V226.969h100.289V422.268z M306.144,211.134H205.856v-21.113h100.289V211.134z M422.268,422.268H321.979V290.309h100.289V422.268z     M422.268,274.474H321.979v-21.113h100.289V274.474z" data-original="#000000" class="active-path" data-old_color="#90a4ae" fill="#90a4ae"/>
	</g>
</g><g>
	<g>
		<rect x="248.082" y="245.443" width="15.835" height="36.948" data-original="#000000" class="active-path" data-old_color="#90a4ae" fill="#90a4ae"/>
	</g>
</g><g>
	<g>
		<rect x="380.041" y="308.784" width="15.835" height="47.505" data-original="#000000" class="active-path" data-old_color="#90a4ae" fill="#90a4ae"/>
	</g>
</g><g>
	<g>
		<rect x="348.371" y="308.784" width="15.835" height="47.505" data-original="#000000" class="active-path" data-old_color="#90a4ae" fill="#90a4ae"/>
	</g>
</g><g>
	<g>
		<rect x="131.959" y="351.01" width="15.835" height="47.505" data-original="#000000" class="active-path" data-old_color="#90a4ae" fill="#90a4ae"/>
	</g>
</g><g>
	<g>
		<rect x="158.351" y="351.01" width="15.835" height="47.505" data-original="#000000" class="active-path" data-old_color="#90a4ae" fill="#90a4ae"/>
	</g>
</g><g>
	<g>
		<rect x="105.567" y="351.01" width="15.835" height="47.505" data-original="#000000" class="active-path" data-old_color="#90a4ae" fill="#90a4ae"/>
	</g>
</g></g> </svg>
